# xmcd
#
# Track frame offsets: 
#        150
#        19454
#        32455
#
# Disc length: 777 seconds
#
# Revision: 0
# Processed by: cddbd v1.5.2PL0 Copyright (c) Steve Scherf et al.
# Submitted via: ExactAudioCopy v0.95b4
#
DISCID=1b030703
DTITLE=Amy Winehouse - You Know I'm No Good
DYEAR=1900
DGENRE=
TTITLE0=You Know I'm No Good
TTITLE1=Monkey Man
TTITLE2=You Know I'm No Good - Skeewiff Mix
EXTD=
EXTT0=
EXTT1=
EXTT2=
PLAYORDER=
